P2
50 50
255
253 253 253 253 255 255 255 255 255 255 255 255 255 254 254 254 254 254 254 254 252 253 253 253 253 253 253 254 254 255 255 255 255 255 255 255 253 253 253 253 254 255 255 254 253 253 253 253 252 252 
253 253 253 253 255 255 255 255 255 255 255 255 255 254 254 254 254 254 254 254 253 253 253 253 253 253 254 254 254 255 255 255 255 255 255 255 253 253 253 253 254 255 255 254 254 254 253 253 253 252 
253 253 253 253 255 255 255 255 255 255 255 255 255 254 254 254 254 254 254 254 253 253 253 253 253 254 254 254 254 255 255 255 255 255 255 255 253 253 253 254 254 255 255 254 253 254 253 253 253 253 
253 253 253 253 255 255 255 255 255 255 255 255 255 254 254 254 254 254 254 254 253 253 253 253 254 254 254 254 254 255 255 255 255 255 255 255 253 253 253 254 254 255 255 254 254 254 254 253 253 253 
253 253 253 253 255 255 255 255 255 255 255 255 255 254 254 254 254 254 254 254 253 253 253 254 254 254 254 254 255 255 255 255 255 255 255 255 253 253 253 254 254 254 255 255 254 254 254 254 254 253 
254 254 253 253 255 255 255 255 255 255 255 255 255 254 254 254 254 254 254 254 253 253 254 254 254 254 254 255 255 255 255 255 255 255 255 255 253 254 254 254 254 254 255 255 255 254 254 253 254 253 
255 255 255 255 255 255 255 255 255 255 255 255 255 254 254 254 254 254 254 254 253 253 253 254 254 254 255 255 255 255 255 255 255 255 255 255 255 255 255 255 255 255 255 255 255 255 254 254 254 254 
255 255 255 255 255 255 255 255 255 255 255 255 255 254 254 254 254 254 254 254 253 253 253 254 254 255 255 255 255 255 255 255 255 255 255 255 255 255 255 255 255 255 255 255 255 255 255 255 255 255 
255 255 255 255 255 255 255 255 255 255 255 255 255 254 254 254 254 254 254 254 253 253 253 254 254 255 255 255 255 255 255 255 255 255 255 255 255 255 255 255 255 255 255 255 254 254 255 255 255 255 
255 255 255 255 255 255 255 255 255 255 255 255 255 254 254 254 254 254 254 254 252 252 253 254 254 255 255 255 255 255 255 255 255 255 255 255 255 255 255 255 255 255 255 255 254 254 254 254 254 254 
255 255 255 255 255 255 255 255 255 255 255 255 255 254 254 254 254 254 254 254 253 253 253 254 254 255 255 255 255 255 255 255 255 255 255 255 255 255 255 255 255 255 255 255 254 254 254 254 253 253 
255 255 255 255 255 255 255 255 255 255 255 255 255 254 254 254 254 254 254 254 253 253 253 254 254 254 254 255 255 255 255 255 255 255 254 254 255 255 255 255 255 255 255 255 254 253 253 253 253 253 
255 255 255 255 255 255 255 255 255 255 255 255 255 254 254 254 254 254 254 254 253 253 253 254 254 254 254 254 255 255 255 255 255 255 254 254 255 255 255 255 255 255 255 255 253 253 253 253 253 253 
255 255 255 255 255 255 255 255 255 255 255 255 255 254 254 254 254 254 254 254 252 252 253 254 254 254 254 254 255 255 255 255 255 255 254 254 255 255 255 255 255 255 255 255 253 253 253 253 253 253 
254 254 253 253 254 254 254 254 254 255 255 255 254 255 255 255 255 255 255 255 255 255 255 255 255 255 255 255 255 255 255 255 255 255 255 255 255 255 255 255 255 255 255 255 255 255 255 255 255 255 
254 254 254 253 254 254 254 255 255 255 255 255 254 255 255 255 255 255 255 255 255 255 255 255 255 255 255 255 255 255 255 255 255 255 255 255 255 255 255 255 255 255 255 255 255 255 255 255 255 255 
254 254 254 254 255 255 255 255 255 255 255 255 255 255 255 255 255 255 255 255 255 255 255 255 255 255 255 255 255 255 255 255 255 255 255 255 255 255 255 255 255 255 255 255 255 255 255 255 255 255 
253 253 253 253 254 254 254 254 255 255 255 255 255 255 255 255 255 255 255 255 255 255 255 255 255 255 255 255 255 255 255 255 255 255 255 255 255 255 255 255 255 255 255 255 255 255 255 255 255 255 
253 253 253 253 255 255 255 255 255 255 255 255 255 255 255 255 255 255 255 255 255 255 255 255 255 255 255 255 255 255 255 255 255 255 255 255 255 255 255 255 255 255 255 255 255 255 255 255 255 255 
252 252 252 252 253 253 253 253 253 253 253 253 254 254 254 254 254 254 254 254 255 255 255 255 255 255 255 255 255 255 255 255 255 255 255 255 255 255 255 255 255 255 255 255 255 255 255 255 255 255 
252 252 252 252 254 254 254 254 254 254 254 254 254 254 254 254 254 254 254 254 255 255 255 255 255 255 255 255 255 255 255 255 255 255 255 255 255 255 255 255 255 255 255 255 255 255 255 255 255 255 
252 252 252 252 253 253 253 253 253 253 254 254 254 254 254 254 254 254 254 254 255 255 255 255 255 255 255 255 255 255 255 255 255 255 255 255 255 255 255 255 255 255 255 255 255 255 255 255 255 255 
253 253 253 253 252 252 252 253 253 253 253 253 253 253 253 254 253 254 254 254 254 254 254 254 254 254 254 254 255 255 255 255 255 254 254 254 255 255 255 255 255 255 255 255 255 255 255 255 255 255 
253 253 253 253 252 252 252 253 253 253 253 253 252 252 252 253 253 253 254 254 254 254 254 254 254 254 254 254 255 255 255 255 255 254 254 254 255 255 255 255 255 255 255 255 255 255 255 255 255 255 
252 252 252 252 252 252 252 252 252 253 253 253 253 252 252 252 253 253 253 254 254 254 254 254 254 254 254 254 255 255 255 255 255 254 254 254 255 255 255 255 255 255 255 255 255 255 255 255 255 255 
252 252 252 252 251 251 252 252 252 252 253 253 252 251 252 252 252 253 253 253 253 253 254 254 254 254 255 255 255 255 255 255 255 254 254 254 255 255 255 255 255 255 255 255 255 255 255 255 255 255 
251 251 251 251 251 251 251 251 252 252 252 253 252 252 251 252 252 252 253 253 253 253 253 254 254 255 255 255 255 255 255 255 255 254 254 254 255 255 255 255 255 255 255 255 255 255 255 255 255 255 
251 251 251 251 251 251 251 251 251 252 252 252 251 252 251 251 252 252 252 252 252 252 253 254 254 255 255 255 255 255 255 255 255 254 254 254 255 255 255 255 255 255 255 255 255 255 255 255 255 255 
251 251 251 251 250 251 251 251 251 252 252 252 251 251 251 251 251 252 252 252 252 252 253 254 254 255 255 255 255 255 255 255 255 254 254 254 255 255 255 255 255 255 255 255 255 255 255 255 255 255 
251 251 251 251 250 250 251 251 251 251 252 252 251 251 251 251 251 252 252 252 252 252 253 254 254 255 255 255 255 255 255 255 255 254 254 254 255 255 255 255 255 255 255 255 255 255 255 255 255 255 
249 248 247 247 251 251 250 250 250 249 249 249 248 249 250 249 251 252 252 252 251 252 252 253 253 254 255 255 254 253 253 254 254 254 254 254 254 254 254 254 254 254 254 255 255 255 255 255 255 255 
246 245 245 244 250 249 249 249 249 248 248 248 249 249 250 251 252 252 252 252 251 252 252 253 253 254 255 255 254 253 253 254 254 254 254 254 254 254 254 254 254 254 254 255 255 255 255 255 255 255 
246 245 244 243 248 248 248 248 248 247 247 247 249 250 251 252 251 252 252 252 251 252 252 253 253 254 254 255 254 254 254 254 255 254 254 254 254 254 254 254 254 254 254 255 255 255 255 255 255 255 
247 246 245 245 245 245 246 247 247 247 247 247 250 251 252 252 252 252 252 252 251 252 252 253 253 253 254 254 254 254 254 255 255 254 254 254 254 254 254 254 254 254 254 255 255 255 255 255 255 255 
246 246 246 244 245 246 246 245 246 247 248 247 250 250 252 252 252 252 252 252 251 252 252 252 253 253 254 254 254 254 254 255 254 254 254 254 254 254 254 254 254 254 254 255 255 255 255 255 255 255 
243 243 243 243 245 245 246 247 246 247 248 249 250 250 250 251 251 251 251 251 250 252 252 252 253 253 253 253 254 254 254 254 254 254 254 254 254 254 254 254 254 254 254 255 255 255 255 255 255 255 
241 242 243 243 245 246 246 247 248 248 249 249 249 249 249 249 250 250 250 249 250 250 252 252 252 253 253 253 254 254 254 254 254 254 254 254 254 254 254 254 254 254 254 255 255 255 255 255 255 255 
241 243 244 245 245 245 246 247 249 249 249 250 248 248 248 248 248 248 247 247 250 250 252 252 252 252 253 253 253 254 254 254 254 254 254 254 254 254 254 254 254 254 254 255 255 255 255 255 255 255 
243 243 243 243 245 245 246 247 248 249 251 250 249 249 248 248 249 250 251 251 249 250 250 250 251 251 251 251 253 253 253 253 254 254 254 254 254 254 254 254 254 254 254 255 255 255 255 255 255 255 
239 240 241 241 242 243 244 245 246 247 248 248 247 246 246 246 246 247 247 247 247 247 248 249 250 251 252 252 252 252 253 253 253 254 254 253 254 254 254 254 254 254 254 255 255 255 255 255 255 255 
236 236 236 236 236 238 240 244 245 246 246 245 244 243 243 243 243 243 243 243 245 246 247 248 250 251 252 252 252 251 252 252 251 252 253 252 254 254 254 254 254 254 254 255 255 255 255 255 255 255 
232 232 233 233 235 236 240 242 244 245 245 244 242 242 242 242 242 241 241 240 246 246 247 249 250 251 251 251 250 251 250 251 251 251 251 251 254 254 254 254 254 254 254 255 255 255 255 255 255 255 
228 229 231 231 235 236 239 241 242 243 243 242 241 242 243 243 243 242 241 241 248 248 248 248 248 248 248 248 251 250 251 250 251 250 251 251 253 254 254 254 254 254 254 255 255 255 255 255 255 255 
226 228 230 231 236 236 237 238 239 239 240 241 240 241 243 245 245 244 243 243 249 248 248 247 247 247 246 246 251 251 250 251 251 251 251 251 253 253 253 253 254 254 254 255 255 255 255 255 255 255 
224 228 231 232 237 236 234 234 234 235 237 238 238 240 243 245 246 246 245 244 247 247 247 247 247 247 247 247 251 251 251 251 252 251 251 252 252 252 253 253 254 254 254 255 255 255 255 255 255 255 
224 228 231 233 237 235 232 230 230 231 234 236 237 239 242 245 246 246 246 245 244 245 245 247 247 248 248 248 250 251 251 252 252 252 252 252 251 252 253 252 253 254 254 255 255 255 255 255 255 255 
231 234 232 226 232 231 230 230 230 232 233 234 238 240 241 243 245 246 246 247 249 249 249 250 250 250 251 251 250 251 251 252 251 252 252 252 251 251 251 252 252 253 253 253 254 255 255 254 253 253 
233 235 233 229 233 233 232 231 232 233 234 235 238 240 241 243 245 246 247 247 249 249 250 250 250 251 251 250 250 251 252 251 251 252 252 252 251 251 252 252 252 253 253 253 254 255 255 254 253 253 
233 236 235 233 235 235 234 234 234 235 236 237 239 240 242 244 245 247 248 247 249 250 250 250 251 251 250 250 251 252 252 251 252 252 252 252 251 252 252 252 253 253 253 253 254 255 255 254 253 253 
231 235 236 236 237 237 237 237 237 238 239 239 240 242 244 245 247 248 248 248 250 250 250 251 251 251 251 252 252 252 251 252 252 252 253 253 252 252 252 253 253 253 254 254 254 255 255 254 253 253 
