P2
50 50
255
231 233 233 231 224 224 226 228 232 236 239 243 241 241 243 246 247 246 246 249 251 251 251 251 252 252 253 253 252 252 252 253 253 254 254 254 255 255 255 255 255 255 255 255 254 253 253 253 253 253 
235 236 235 234 228 228 228 229 232 236 240 243 243 242 243 246 246 245 245 248 251 251 251 251 252 252 253 253 252 252 252 253 253 254 254 254 255 255 255 255 255 255 255 255 254 253 253 253 253 253 
236 235 233 232 231 231 230 231 233 236 241 243 244 243 243 246 245 244 245 247 251 251 251 251 252 252 253 253 252 252 252 253 253 254 254 253 255 255 255 255 255 255 255 255 253 253 253 253 253 253 
236 233 229 226 233 232 231 231 233 236 241 243 245 243 243 244 245 243 244 247 251 251 251 251 252 252 253 253 252 252 252 253 253 254 253 253 255 255 255 255 255 255 255 255 253 253 253 253 253 253 
237 235 233 232 237 237 236 235 235 236 242 245 245 245 245 245 245 248 250 251 250 250 251 251 251 252 252 252 253 254 253 255 254 255 254 254 255 255 255 255 255 255 255 255 255 255 255 255 255 255 
237 235 233 231 235 236 236 236 236 238 243 245 245 246 245 246 245 248 249 251 250 251 251 251 251 252 252 252 253 254 253 255 254 255 254 254 255 255 255 255 255 255 255 255 255 255 255 255 255 255 
237 234 232 230 232 234 237 239 240 240 244 246 246 246 246 246 246 248 249 250 251 251 251 251 252 252 252 252 253 254 253 255 254 255 254 254 255 255 255 255 255 255 255 255 255 255 255 255 255 255 
237 234 231 230 230 234 238 241 242 244 245 247 247 247 247 245 247 248 249 250 251 251 251 251 252 252 253 253 253 254 253 255 254 255 255 254 255 255 255 255 255 255 255 255 255 255 255 255 255 255 
237 234 232 230 230 234 239 242 244 245 246 248 249 248 246 246 247 248 249 250 251 251 251 252 252 252 253 253 253 254 253 255 255 255 255 254 255 255 255 255 255 255 255 255 255 255 255 255 255 255 
238 235 233 232 231 235 239 243 245 246 247 249 249 248 247 247 247 247 248 249 251 252 252 252 252 253 253 253 253 254 253 255 255 255 255 255 255 255 255 255 255 255 255 255 255 255 255 255 255 255 
239 236 234 233 234 237 240 243 245 246 248 251 249 249 248 248 247 247 248 249 252 252 252 252 253 253 253 253 254 254 253 255 255 255 255 255 255 255 255 255 255 255 255 255 255 255 255 255 255 255 
239 237 235 234 236 238 241 242 244 245 248 250 250 249 249 247 247 247 248 249 252 252 252 253 253 253 253 253 254 254 253 255 255 255 255 255 255 255 255 255 255 255 255 255 255 255 255 255 255 255 
240 239 238 238 237 238 240 241 242 244 247 249 248 249 250 250 250 249 249 248 251 251 251 252 252 253 252 253 254 254 254 255 255 255 254 254 255 255 255 255 255 255 255 255 255 255 255 255 255 255 
242 240 240 240 239 240 241 242 242 243 246 249 248 249 250 250 251 250 249 249 251 251 252 252 251 252 252 253 254 254 254 255 255 255 255 255 254 254 254 254 254 254 254 254 254 254 254 254 254 254 
244 242 241 241 242 243 243 243 242 243 246 248 248 249 250 252 252 251 250 250 251 251 251 251 252 252 252 253 254 254 254 255 255 255 255 255 254 254 254 254 254 254 254 254 254 254 254 254 254 254 
245 244 243 243 245 245 245 243 242 243 246 248 248 249 251 252 252 252 251 249 251 251 251 252 252 252 253 254 254 254 254 255 255 255 255 255 254 254 254 254 254 254 254 254 254 254 254 254 254 254 
247 245 245 245 246 246 245 243 242 243 246 249 248 250 251 252 252 251 252 251 251 251 252 252 252 253 253 253 254 254 254 255 255 255 255 255 254 254 254 254 254 254 254 254 254 254 254 254 254 254 
248 247 246 246 246 246 244 242 241 243 247 250 248 250 251 252 252 252 252 252 252 252 252 252 253 253 253 254 254 254 254 255 255 255 255 255 254 254 254 254 254 254 254 254 254 254 254 254 254 254 
248 248 247 246 246 245 243 241 241 243 247 251 247 250 251 252 252 252 252 252 252 252 252 253 253 253 254 254 254 254 254 255 255 255 255 255 254 254 254 254 254 254 254 254 254 254 254 254 254 254 
248 247 247 247 245 244 243 241 240 243 247 251 247 249 251 252 252 252 252 252 252 252 252 253 253 254 254 254 254 254 254 255 255 255 255 255 254 254 254 254 254 254 254 254 254 254 254 254 254 254 
250 249 249 249 244 247 249 248 246 245 247 249 250 250 250 251 251 251 251 251 252 252 252 253 253 254 254 254 255 255 255 255 255 255 255 255 252 253 253 253 252 253 253 253 253 253 253 253 253 252 
250 250 249 249 245 247 248 248 246 246 247 250 250 250 252 252 252 252 252 252 252 252 252 253 253 254 254 254 255 255 255 255 255 255 255 255 252 253 253 253 252 253 253 253 253 253 253 253 253 253 
250 250 250 249 245 247 248 248 247 247 248 250 252 252 252 252 252 252 252 252 253 253 253 253 254 254 254 254 255 255 255 255 255 255 255 255 253 253 253 253 253 253 253 253 254 253 253 253 253 253 
251 250 250 250 247 247 247 248 249 248 249 250 252 252 252 252 253 253 253 253 254 254 254 254 254 254 254 254 255 255 255 255 255 255 255 255 254 254 254 254 254 254 254 254 254 254 253 253 253 253 
251 251 250 250 247 247 247 248 250 250 250 251 252 252 253 253 253 253 253 253 254 254 254 254 254 254 254 254 255 255 255 255 255 255 255 255 254 254 254 254 254 254 254 254 254 254 254 253 253 253 
251 251 251 250 248 247 247 248 251 251 251 251 252 253 253 253 253 254 254 254 255 255 255 255 254 254 254 254 255 255 255 255 255 255 255 255 254 254 254 255 255 255 255 254 254 254 254 254 253 253 
251 250 251 251 248 247 246 248 251 252 252 251 253 253 253 254 254 254 255 255 255 255 255 255 255 254 254 254 255 255 255 255 255 255 255 255 254 254 254 255 255 255 255 255 254 254 254 254 254 253 
252 250 250 251 248 247 246 248 251 252 252 251 253 253 253 254 254 255 255 255 255 255 255 255 255 254 254 254 255 255 255 255 255 255 255 255 254 254 255 255 255 255 255 255 255 254 254 254 254 254 
252 251 250 250 250 251 251 251 250 252 252 253 253 254 254 254 254 254 254 254 255 255 255 255 255 255 255 255 255 255 255 255 255 255 255 255 255 255 255 255 255 255 255 255 255 255 254 254 254 254 
252 252 251 251 251 251 251 250 251 251 252 253 254 254 254 254 254 254 253 253 255 255 255 255 255 255 255 255 255 255 255 255 255 255 255 255 255 255 255 255 255 255 255 255 255 255 255 255 255 255 
251 252 252 251 251 251 250 251 250 252 253 253 254 254 254 254 254 254 253 253 255 255 255 255 255 255 255 255 255 255 255 255 255 255 255 255 255 255 255 255 255 255 255 255 255 255 255 255 255 255 
252 251 251 252 252 251 251 250 251 252 253 253 254 254 254 255 255 254 254 254 255 255 255 255 255 255 255 255 255 255 255 255 255 255 255 255 255 255 255 255 255 255 255 255 255 255 255 255 255 255 
252 252 251 251 252 252 251 251 251 251 253 254 254 254 254 254 255 255 254 254 255 255 255 255 255 255 255 255 255 255 255 255 255 255 255 255 255 255 255 255 255 255 255 255 255 255 255 255 255 255 
252 252 252 252 252 251 251 250 251 252 254 254 254 254 254 254 254 254 254 254 254 254 254 254 254 254 254 254 255 255 255 255 255 255 255 255 255 255 255 255 255 255 255 255 255 255 255 255 255 255 
253 252 252 252 252 251 251 251 251 253 254 254 254 254 254 254 254 254 254 254 254 254 254 254 254 254 254 254 255 255 255 255 255 255 255 255 254 254 254 255 255 255 255 255 255 255 255 255 255 255 
253 252 252 252 252 252 251 251 251 252 253 254 254 254 254 254 254 254 254 254 254 254 254 254 254 254 254 254 255 255 255 255 255 255 255 255 254 254 254 255 255 255 255 255 255 255 255 255 255 255 
252 251 251 251 251 252 253 253 254 254 254 254 254 254 254 254 254 254 254 254 255 255 255 255 255 255 255 255 255 255 255 255 255 255 255 255 255 255 255 255 255 255 255 255 253 253 253 253 253 253 
252 252 251 251 252 252 253 254 254 254 254 254 254 254 254 254 254 254 254 254 255 255 255 255 255 255 255 255 255 255 255 255 255 255 255 255 255 255 255 255 255 255 255 255 254 253 253 253 253 253 
252 252 252 251 253 253 253 254 254 254 254 254 254 254 254 254 254 254 254 254 255 255 255 255 255 255 255 255 255 255 255 255 255 255 255 255 255 255 255 255 255 255 255 255 254 253 253 253 253 253 
253 252 252 252 252 253 253 254 254 254 254 254 254 254 254 254 254 254 254 254 255 255 255 255 255 255 255 255 255 255 255 255 255 255 255 255 255 255 255 255 255 255 255 255 254 254 254 254 253 253 
253 253 252 252 253 254 254 254 254 254 254 254 254 254 254 254 254 254 254 254 255 255 255 255 255 255 255 255 255 255 255 255 255 255 255 255 255 255 255 255 255 255 255 255 254 254 254 254 254 254 
253 253 253 253 254 254 254 254 254 254 254 254 254 254 254 254 254 254 254 254 255 255 255 255 255 255 255 255 255 255 255 255 255 255 255 255 255 255 255 255 255 255 255 255 254 254 255 255 255 255 
254 253 253 253 254 254 254 254 254 254 254 254 254 254 254 254 254 254 254 254 255 255 255 255 255 255 255 255 255 255 255 255 255 255 255 255 255 255 255 255 255 255 255 255 255 255 255 255 255 255 
254 253 253 253 255 255 255 255 255 255 255 255 255 255 255 255 255 255 255 255 255 255 255 255 255 255 255 255 255 255 255 255 255 255 255 255 255 255 255 255 255 255 255 255 255 255 254 254 254 254 
254 254 254 254 255 255 255 255 255 255 255 255 255 255 255 255 255 255 255 255 255 255 255 255 255 255 255 255 255 255 255 255 255 255 255 255 253 253 254 254 254 254 255 255 255 254 254 253 254 253 
255 255 255 255 255 255 255 255 255 255 255 255 255 255 255 255 255 255 255 255 255 255 255 255 255 255 255 255 255 255 255 255 255 255 255 255 253 253 253 254 254 254 255 255 254 254 254 254 254 253 
255 255 255 255 255 255 255 255 255 255 255 255 255 255 255 255 255 255 255 255 255 255 255 255 255 255 255 255 255 255 255 255 255 255 255 255 253 253 253 254 254 255 255 254 254 254 254 253 253 253 
254 254 254 254 255 255 255 255 255 255 255 255 255 255 255 255 255 255 255 255 255 255 255 255 255 255 255 255 255 255 255 255 255 255 255 255 253 253 253 254 254 255 255 254 253 254 253 253 253 253 
253 253 253 253 255 255 255 255 255 255 255 255 255 255 255 255 255 255 255 255 255 255 255 255 255 255 255 255 255 255 255 255 255 255 255 255 253 253 253 253 254 255 255 254 254 254 253 253 253 252 
253 253 253 253 255 255 255 255 255 255 255 255 255 255 255 255 255 255 255 255 255 255 255 255 255 255 255 255 255 255 255 255 255 255 255 255 253 253 253 253 254 255 255 254 253 253 253 253 252 252 
